<svg width="20" height="21" viewBox="0 0 20 21" fill="none" xmlns="http://www.w3.org/2000/svg">
<path d="M14.1971 0H5.8129C2.17108 0 0 2.2785 0 6.1005V14.889C0 18.7215 2.17108 21 5.8129 21H14.1871C17.8289 21 20 18.7215 20 14.8995V6.1005C20.01 2.2785 17.8389 0 14.1971 0ZM10.005 14.574C7.86392 14.574 6.12305 12.747 6.12305 10.5C6.12305 8.253 7.86392 6.426 10.005 6.426C12.1461 6.426 13.8869 8.253 13.8869 10.5C13.8869 12.747 12.1461 14.574 10.005 14.574ZM15.9279 5.124C15.8779 5.25 15.8079 5.3655 15.7178 5.4705C15.6178 5.565 15.5077 5.6385 15.3877 5.691C15.2056 5.77211 15.0046 5.79446 14.8104 5.75518C14.6161 5.71591 14.4375 5.6168 14.2971 5.4705C14.2071 5.3655 14.137 5.25 14.087 5.124C14.0356 4.99781 14.0084 4.86223 14.007 4.725C14.007 4.5885 14.037 4.452 14.087 4.326C14.137 4.1895 14.2071 4.0845 14.2971 3.9795C14.5272 3.738 14.8774 3.6225 15.1976 3.696C15.2676 3.7065 15.3276 3.7275 15.3877 3.759C15.4477 3.78 15.5077 3.8115 15.5678 3.8535C15.6178 3.885 15.6678 3.9375 15.7178 3.9795C15.8079 4.0845 15.8779 4.1895 15.9279 4.326C15.978 4.452 16.008 4.5885 16.008 4.725C16.008 4.8615 15.978 4.998 15.9279 5.124Z" fill="white"/>
</svg>
