<svg width="20" height="21" viewBox="0 0 20 21" fill="none" xmlns="http://www.w3.org/2000/svg">
<path d="M20 14.8995C20 18.7215 17.83 21 14.19 21H13C12.45 21 12 20.5275 12 19.95V13.8915C12 13.608 12.22 13.3665 12.49 13.3665L14.25 13.335C14.39 13.3245 14.51 13.2195 14.54 13.0725L14.89 11.067C14.8968 11.0215 14.8941 10.9751 14.8822 10.9308C14.8702 10.8865 14.8492 10.8455 14.8207 10.8106C14.7922 10.7757 14.7568 10.7476 14.717 10.7285C14.6771 10.7093 14.6338 10.6994 14.59 10.6995L12.46 10.731C12.18 10.731 11.96 10.5 11.95 10.2165L11.91 7.644C11.91 7.476 12.04 7.329 12.21 7.329L14.61 7.287C14.78 7.287 14.91 7.1505 14.91 6.972L14.87 4.452C14.87 4.2735 14.74 4.137 14.57 4.137L11.87 4.179C11.4759 4.18529 11.0868 4.27318 10.725 4.43764C10.3633 4.6021 10.0361 4.83989 9.76201 5.1374C9.48796 5.4349 9.27252 5.78626 9.12803 6.17135C8.98354 6.55644 8.91285 6.96767 8.92 7.3815L8.97 10.269C8.98 10.563 8.76 10.794 8.48 10.8045L7.28 10.8255C7.11 10.8255 6.98 10.962 6.98 11.1405L7.01 13.1355C7.01 13.314 7.14 13.4505 7.31 13.4505L8.51 13.4295C8.79 13.4295 9.01 13.6605 9.02 13.944L9.11 19.929C9.12 20.517 8.67 21 8.11 21H5.81C2.17 21 0 18.7215 0 14.889V6.1005C0 2.2785 2.17 0 5.81 0H14.19C17.83 0 20 2.2785 20 6.1005V14.8995Z" fill="white"/>
</svg>
